<?xml version="1.0" encoding="UTF-8" standalone="no"?>
<svg xmlns="http://www.w3.org/2000/svg" xmlns:svg="http://www.w3.org/2000/svg">

   <g id="layer1" transform="translate(-212.30286,-180.91876)">

      <g transform="matrix(0.72198319,0,-0.26174556,1.3850738,0,0)" id="svausterlitz" style="fill:#ff0000">
         <path d="m 514.61259,243.41328 10.32731,-0.97138 q 0.63907,1.84051 1.78939,2.63295 1.15032,0.79244 3.06752,0.79244 2.09613,0 3.24645,-0.89469 0.89469,-0.66463 0.89469,-1.66157 0,-1.12476 -1.17588,-1.73826 -0.84356,-0.43457 -4.47346,-1.07363 -5.41928,-0.94582 -7.54098,-1.73826 -2.09614,-0.81801 -3.55321,-2.73521 -1.43151,-1.9172 -1.43151,-4.37121 0,-2.68408 1.55932,-4.62684 1.55933,-1.94276 4.29453,-2.88858 2.7352,-0.97138 7.33648,-0.97138 4.8569,0 7.15754,0.74132 2.3262,0.74132 3.85996,2.30064 1.55932,1.55932 2.58183,4.21783 l -9.86719,0.97138 q -0.38344,-1.30369 -1.27813,-1.91719 -1.227,-0.81801 -2.96526,-0.81801 -1.76383,0 -2.58183,0.63907 -0.79244,0.6135 -0.79244,1.50819 0,0.99695 1.0225,1.5082 1.02251,0.51125 4.4479,0.92025 5.18922,0.58795 7.71992,1.63601 2.5307,1.04807 3.85996,2.99083 1.35482,1.94276 1.35482,4.26897 0,2.35176 -1.43151,4.57571 -1.40594,2.22395 -4.47346,3.55321 -3.04196,1.30369 -8.30786,1.30369 -7.43873,0 -10.6085,-2.1217 -3.1442,-2.1217 -4.0389,-6.03278 z" />
         <path d="m 545.33889,223.78117 h 10.83857 l 5.2659,17.20366 5.44485,-17.20366 h 10.50624 L 565.8657,250.9287 h -9.22812 z" />
         <path d="m 621.61783,244.74254 h -13.19032 l -1.81495,6.18616 h -11.83551 l 14.08502,-37.47484 h 12.62795 l 14.08502,37.47484 h -12.1167 z m -2.42845,-8.10336 -4.14115,-13.47152 -4.11558,13.47152 z" />
         <path d="m 666.68477,250.9287 h -9.7138 v -4.39678 q -2.17283,2.70964 -4.39678,3.85996 -2.19839,1.15032 -5.41928,1.15032 -4.29452,0 -6.74854,-2.55627 -2.42845,-2.58182 -2.42845,-7.92442 v -17.28034 h 10.45512 v 14.92858 q 0,2.55627 0.94582,3.6299 0.94582,1.07363 2.65852,1.07363 1.86607,0 3.04195,-1.43151 1.20145,-1.43151 1.20145,-5.13809 v -13.06251 h 10.40399 z" />
         <path d="m 671.15823,243.41328 10.32731,-0.97138 q 0.63907,1.84051 1.78939,2.63295 1.15032,0.79244 3.06751,0.79244 2.09614,0 3.24646,-0.89469 0.89469,-0.66463 0.89469,-1.66157 0,-1.12476 -1.17588,-1.73826 -0.84357,-0.43457 -4.47346,-1.07363 -5.41928,-0.94582 -7.54098,-1.73826 -2.09614,-0.81801 -3.55321,-2.73521 -1.43151,-1.9172 -1.43151,-4.37121 0,-2.68408 1.55932,-4.62684 1.55932,-1.94276 4.29453,-2.88858 2.7352,-0.97138 7.33648,-0.97138 4.8569,0 7.15754,0.74132 2.3262,0.74132 3.85996,2.30064 1.55932,1.55932 2.58182,4.21783 l -9.86718,0.97138 q -0.38344,-1.30369 -1.27813,-1.91719 -1.22701,-0.81801 -2.96527,-0.81801 -1.76382,0 -2.58182,0.63907 -0.79244,0.6135 -0.79244,1.50819 0,0.99695 1.0225,1.5082 1.02251,0.51125 4.4479,0.92025 5.18922,0.58795 7.71992,1.63601 2.5307,1.04807 3.85996,2.99083 1.35482,1.94276 1.35482,4.26897 0,2.35176 -1.43151,4.57571 -1.40594,2.22395 -4.47346,3.55321 -3.04196,1.30369 -8.30786,1.30369 -7.43873,0 -10.6085,-2.1217 -3.1442,-2.1217 -4.0389,-6.03278 z" />
         <path d="m 717.52888,213.45386 v 10.32731 h 5.72604 v 7.5921 h -5.72604 v 9.63712 q 0,1.73826 0.33232,2.30064 0.51125,0.86913 1.78938,0.86913 1.15032,0 3.2209,-0.66463 l 0.76688,7.1831 q -3.85996,0.84357 -7.20867,0.84357 -3.88552,0 -5.72603,-0.99694 -1.84051,-0.99695 -2.73521,-3.0164 -0.86913,-2.04501 -0.86913,-6.59516 v -9.56043 h -3.83439 v -7.5921 h 3.83439 v -4.98472 z" />
         <path d="M 758.35242,239.93676 H 737.4933 q 0.28119,2.50514 1.35482,3.73214 1.5082,1.76383 3.93665,1.76383 1.53376,0 2.91414,-0.76688 0.84357,-0.48569 1.81495,-1.7127 l 10.25062,0.94582 q -2.35176,4.09002 -5.67491,5.87941 -3.32314,1.76382 -9.53487,1.76382 -5.39371,0 -8.48679,-1.5082 -3.09308,-1.53376 -5.1381,-4.83134 -2.01944,-3.32314 -2.01944,-7.7966 0,-6.3651 4.06446,-10.30175 4.09002,-3.93665 11.27312,-3.93665 5.82829,0 9.20256,1.76382 3.37426,1.76383 5.13809,5.11253 1.76382,3.34871 1.76382,8.71687 z m -10.58294,-4.98472 q -0.30675,-3.01639 -1.63601,-4.32009 -1.30369,-1.30369 -3.45095,-1.30369 -2.47958,0 -3.96221,1.96832 -0.94582,1.22701 -1.20145,3.65546 z" />
         <path d="m 763.23489,223.78117 h 9.73937 v 4.4479 q 1.40594,-2.88858 2.88858,-3.96221 1.50819,-1.0992 3.70658,-1.0992 2.30064,0 5.03584,1.43151 l -3.22089,7.41317 q -1.84051,-0.76688 -2.91414,-0.76688 -2.04501,0 -3.16977,1.68713 -1.61045,2.37733 -1.61045,8.8958 v 9.10031 h -10.45512 z" />
         <path d="m 788.46522,213.45386 h 10.42956 v 37.47484 h -10.42956 z" />
         <path d="m 805.9245,213.45386 h 10.40399 v 7.08085 H 805.9245 Z m 0,10.32731 h 10.40399 V 250.9287 H 805.9245 Z" />
         <path d="m 835.52606,213.45386 v 10.32731 h 5.72603 v 7.5921 h -5.72603 v 9.63712 q 0,1.73826 0.33232,2.30064 0.51125,0.86913 1.78938,0.86913 1.15032,0 3.22089,-0.66463 l 0.76688,7.1831 q -3.85996,0.84357 -7.20866,0.84357 -3.88552,0 -5.72603,-0.99694 -1.84052,-0.99695 -2.73521,-3.0164 -0.86913,-2.04501 -0.86913,-6.59516 v -9.56043 h -3.83439 v -7.5921 h 3.83439 v -4.98472 z" />
         <path d="m 845.03537,223.78117 h 25.17921 v 6.08391 l -13.70158,13.9572 h 14.54514 v 7.10642 h -27.04527 v -6.74854 l 12.98582,-13.29258 h -11.96332 z" />
      </g>
      <g transform="matrix(0.03527778,0,0,-0.03527778,210.18619,362.9521)" fill="#000000" id="piramide">
         <path d="m 2066,5079 -76,-81 v -174 -174 h 170 170 v 171 171 l -77,84 c -43,46 -85,83 -94,84 -10,0 -51,-36 -93,-81 z m 214,-284 v -95 h -120 -120 v 95 95 h 120 120 z" />
         <path d="m 2010,4565 c 0,-3 -34,-442 -75,-977 -41,-535 -75,-973 -75,-975 0,-2 131,-3 290,-3 160,0 290,2 290,4 0,17 -131,1844 -136,1894 l -6,62 h -144 c -79,0 -144,-2 -144,-5 z m 244,-44 c 5,-7 136,-1788 136,-1843 0,-17 -13,-18 -240,-18 -182,0 -240,3 -240,12 0,46 142,1843 146,1849 7,12 191,12 198,0 z" />
         <path d="m 2120,3670 v -80 h 30 30 v 80 80 h -30 -30 z" />
         <path d="m 2120,3296 v -86 h 30 31 l -3,83 c -3,81 -3,82 -30,85 l -28,3 z" />
         <path d="m 2120,2920 v -80 h 30 30 v 80 80 h -30 -30 z" />
         <path d="m 1760,2338 -1,-153 -57,-71 C 1671,2075 1493,1855 1308,1624 1123,1394 835,1036 669,830 161,199 60,72 60,66 60,63 2337,60 5120,60 h 5060 v 45 45 l -3012,2 -3013,3 -164,205 c -90,113 -146.1795,193.03495 -150.1795,192.03495 -3,-1 -16.9627,-32.54797 -18.9627,-44.54797 24.2688,-30.11743 33.5198,-43.84345 129.1089,-169.15845 C 4024.9667,245.32853 4080,174 4080,170 c 0,-4 -7,-11 -16,-14 -24,-9 -1777,-7 -1792,2 -10,7 -12,242 -10,1143 3,1126 2.9689,1133.5738 2.9689,1133.5738 18.9512,0.2953 38.7525,-0.3285 46.2275,-0.1921 L 2311,2160 h 94 94 l 173,-217 c 204,-257 58.5876,-74.6326 267.6595,-337.9889 106.0622,-133.6007 55.8338,-96.9373 116.4034,-76.839 C 3062.7741,1530.399 3003,1599 2858,1780 c -138,173 -266,335 -284,359 l -34,44 v 153 154 H 2150 1760 Z M 2035,1295 V 165 l -918,-3 c -504,-1 -917,0 -917,4 0,3 37,51 83,107 46,56 204,253 352,437 270,336 463,576 914,1138 l 243,302 h 99 99 l 2,128 c 0,70 1,133 1,140 -1,8 8,12 21,10 l 21,-3 z m 195,-137 V 160 h -80 -80 v 998 997 h 80 80 z" />
      </g>
   </g>
</svg>